<?xml version="1.0" standalone="no"?>
<!DOCTYPE svg PUBLIC "-//W3C//DTD SVG 20010904//EN"
 "http://www.w3.org/TR/2001/REC-SVG-20010904/DTD/svg10.dtd">
<svg version="1.0" xmlns="http://www.w3.org/2000/svg"
 width="192.000000pt" height="192.000000pt" viewBox="0 0 192.000000 192.000000"
 preserveAspectRatio="xMidYMid meet">

<g transform="translate(0.000000,192.000000) scale(0.100000,-0.100000)"
fill="#000000" stroke="none">
<path d="M125 1904 c-101 -37 -125 -97 -125 -310 l0 -153 72 44 c39 25 108 57
152 72 74 26 94 28 221 28 122 -1 146 -3 187 -22 190 -88 224 -283 77 -436
l-56 -58 44 -21 c115 -54 158 -196 117 -381 -18 -81 -59 -171 -104 -227 -66
-84 -187 -130 -290 -110 -68 13 -98 35 -110 80 -10 36 -1 112 14 127 3 3 19
-6 36 -21 67 -56 160 -23 201 71 30 70 44 197 30 265 -21 97 -71 138 -170 138
-44 0 -51 -3 -56 -22 -24 -111 -80 -372 -111 -518 -3 -14 -10 -42 -15 -62
l-10 -38 -114 0 -115 0 0 -88 c0 -146 36 -214 129 -247 38 -13 148 -15 831
-15 859 0 841 -1 902 57 58 55 58 60 58 720 l0 603 -72 0 c-40 1 -109 7 -153
15 -43 8 -80 13 -81 12 -2 -2 -28 -121 -49 -217 -24 -113 -45 -211 -60 -280
-8 -36 -31 -141 -51 -235 -20 -93 -44 -204 -53 -245 l-17 -75 -117 -3 c-105
-2 -117 -1 -117 15 0 9 50 249 110 532 61 284 112 523 113 531 2 12 -8 14 -48
12 -110 -7 -196 -55 -235 -132 -37 -72 -49 -209 -25 -287 6 -20 4 -23 -21 -23
-16 0 -48 9 -71 19 -55 25 -75 66 -75 146 1 191 107 325 310 393 71 24 91 26
252 26 97 1 204 -4 240 -11 36 -7 100 -15 143 -19 l77 -7 0 100 c0 158 -33
224 -129 258 -63 22 -1604 22 -1666 -1z"/>
<path d="M262 1486 c-102 -38 -181 -110 -223 -202 -27 -59 -40 -166 -28 -228
6 -34 6 -52 -1 -54 -6 -2 -10 -107 -9 -300 1 -187 4 -282 10 -257 4 22 17 83
29 135 11 52 25 115 30 140 5 25 19 88 30 140 11 52 25 115 30 140 5 25 19 88
30 140 11 52 25 117 30 144 6 27 15 66 20 86 l10 37 117 15 c65 8 120 14 122
12 3 -3 -9 -70 -49 -257 -12 -55 -19 -101 -16 -105 11 -11 86 19 127 51 23 17
55 56 71 84 63 113 41 231 -52 280 -61 32 -188 32 -278 -1z"/>
</g>
</svg>
